<svg width="32" height="33" viewBox="0 0 32 33" fill="none" xmlns="http://www.w3.org/2000/svg">
<path d="M12.0324 5.13138C11.9993 5.00416 11.9916 4.87166 12.0098 4.74146C12.0279 4.61126 12.0716 4.48592 12.1382 4.37261C12.2049 4.2593 12.2932 4.16023 12.3982 4.08109C12.5031 4.00195 12.6227 3.94428 12.7499 3.91138C14.8817 3.36157 17.1182 3.36157 19.2499 3.91138C19.4861 3.97183 19.692 4.11644 19.829 4.31803C19.966 4.51962 20.0246 4.76431 19.9939 5.0061C19.9632 5.2479 19.8453 5.47016 19.6622 5.6311C19.4792 5.79205 19.2437 5.88061 18.9999 5.88013C18.9156 5.87969 18.8316 5.86877 18.7499 5.84763C16.9461 5.38239 15.0538 5.38239 13.2499 5.84763C12.9935 5.91377 12.7213 5.87551 12.4931 5.74124C12.2649 5.60696 12.0992 5.38764 12.0324 5.13138ZM6.72369 7.39263C5.18199 8.96253 4.06378 10.8979 3.47369 13.0176C3.40291 13.2732 3.43657 13.5465 3.56726 13.7773C3.69795 14.0081 3.91496 14.1775 4.17057 14.2483C4.42617 14.319 4.69942 14.2854 4.93021 14.1547C5.16099 14.024 5.33041 13.807 5.40119 13.5514C5.90003 11.7571 6.84626 10.1188 8.15119 8.79013C8.32188 8.59813 8.41212 8.34781 8.40322 8.09107C8.39432 7.83432 8.28695 7.59086 8.10338 7.41114C7.91981 7.23143 7.67411 7.12925 7.41724 7.12581C7.16037 7.12236 6.91202 7.2179 6.72369 7.39263ZM5.40119 19.4439C5.36606 19.3173 5.30635 19.1989 5.22546 19.0954C5.14457 18.9919 5.0441 18.9054 4.92976 18.8408C4.81543 18.7761 4.68949 18.7346 4.55911 18.7186C4.42874 18.7026 4.2965 18.7125 4.16994 18.7476C4.04338 18.7828 3.92498 18.8425 3.82149 18.9234C3.71801 19.0042 3.63147 19.1047 3.56682 19.2191C3.50216 19.3334 3.46066 19.4593 3.44468 19.5897C3.42871 19.7201 3.43856 19.8523 3.47369 19.9789C4.06414 22.0985 5.1823 24.0337 6.72369 25.6039C6.90967 25.793 7.16317 25.9005 7.42842 25.9027C7.69367 25.905 7.94893 25.8017 8.13807 25.6158C8.3272 25.4298 8.4347 25.1763 8.43693 24.911C8.43916 24.6458 8.33592 24.3905 8.14994 24.2014C6.84662 22.8731 5.90096 21.2364 5.40119 19.4439ZM18.7499 27.1526C16.9462 27.6184 15.0537 27.6184 13.2499 27.1526C13.1221 27.1175 12.9885 27.1082 12.857 27.1252C12.7255 27.1422 12.5986 27.1852 12.4839 27.2516C12.3691 27.3181 12.2688 27.4067 12.1886 27.5124C12.1084 27.618 12.05 27.7385 12.0169 27.8669C11.9837 27.9953 11.9764 28.129 11.9955 28.2602C12.0145 28.3915 12.0594 28.5176 12.1276 28.6314C12.1958 28.7451 12.286 28.8441 12.3928 28.9226C12.4997 29.0012 12.6211 29.0577 12.7499 29.0889C14.8817 29.6387 17.1182 29.6387 19.2499 29.0889C19.5031 29.0193 19.7188 28.853 19.8504 28.6258C19.982 28.3986 20.019 28.1288 19.9534 27.8745C19.8877 27.6203 19.7247 27.4021 19.4996 27.267C19.2744 27.132 19.0051 27.0909 18.7499 27.1526ZM27.8312 18.7501C27.7045 18.715 27.5722 18.7052 27.4418 18.7212C27.3113 18.7373 27.1853 18.7789 27.071 18.8437C26.9566 18.9084 26.8562 18.9951 26.7753 19.0988C26.6945 19.2024 26.6349 19.3209 26.5999 19.4476C26.1014 21.2417 25.1551 22.8796 23.8499 24.2076C23.7579 24.3014 23.6853 24.4123 23.6362 24.5341C23.587 24.6559 23.5624 24.7862 23.5636 24.9175C23.5648 25.0489 23.5919 25.1787 23.6433 25.2996C23.6946 25.4204 23.7693 25.53 23.8631 25.622C23.9568 25.714 24.0677 25.7867 24.1895 25.8358C24.3113 25.8849 24.4416 25.9096 24.573 25.9084C24.7043 25.9071 24.8341 25.8801 24.955 25.8287C25.0759 25.7773 25.1854 25.7026 25.2774 25.6089C26.8194 24.0391 27.9376 22.1037 28.5274 19.9839C28.563 19.8572 28.5731 19.7247 28.5573 19.594C28.5416 19.4633 28.5001 19.3371 28.4355 19.2225C28.3708 19.1078 28.2841 19.0071 28.1804 18.9261C28.0767 18.845 27.958 18.7852 27.8312 18.7501ZM26.5987 13.5576C26.6338 13.6842 26.6935 13.8026 26.7744 13.9061C26.8553 14.0096 26.9558 14.0961 27.0701 14.1608C27.1845 14.2254 27.3104 14.2669 27.4408 14.2829C27.5711 14.2989 27.7034 14.289 27.8299 14.2539C27.9565 14.2187 28.0749 14.159 28.1784 14.0781C28.2819 13.9973 28.3684 13.8968 28.4331 13.7824C28.4977 13.6681 28.5392 13.5422 28.5552 13.4118C28.5712 13.2814 28.5613 13.1492 28.5262 13.0226C27.9364 10.9028 26.8181 8.96737 25.2762 7.39763C25.1841 7.30398 25.0745 7.22938 24.9536 7.17811C24.8326 7.12683 24.7028 7.09987 24.5715 7.09876C24.4401 7.09766 24.3099 7.12244 24.1881 7.17168C24.0663 7.22092 23.9555 7.29366 23.8618 7.38575C23.7682 7.47784 23.6936 7.58747 23.6423 7.70839C23.591 7.82931 23.5641 7.95914 23.563 8.09048C23.5618 8.22182 23.5866 8.35209 23.6359 8.47385C23.6851 8.59561 23.7579 8.70648 23.8499 8.80013C25.1537 10.1276 26.0994 11.764 26.5987 13.5564V13.5576Z" fill="#65A30D"/>
</svg>
