<svg width="32" height="33" viewBox="0 0 32 33" fill="none" xmlns="http://www.w3.org/2000/svg">
<path d="M26 13.4999C26 11.5647 25.4385 9.67111 24.3835 8.04875C23.3286 6.42639 21.8257 5.14497 20.0569 4.35989C18.2881 3.57481 16.3295 3.31981 14.4187 3.62582C12.5079 3.93182 10.7269 4.78569 9.29175 6.08385C7.8566 7.38201 6.82894 9.0687 6.33341 10.9394C5.83788 12.81 5.89576 14.7843 6.50005 16.6227C7.10434 18.4611 8.22906 20.0846 9.73781 21.2965C11.2466 22.5083 13.0745 23.2564 15 23.4499V29.4999C15 29.7651 15.1054 30.0195 15.2929 30.207C15.4804 30.3945 15.7348 30.4999 16 30.4999C16.2652 30.4999 16.5196 30.3945 16.7071 30.207C16.8946 30.0195 17 29.7651 17 29.4999V23.4499C19.4654 23.199 21.7503 22.0428 23.4127 20.205C25.0751 18.3671 25.997 15.9781 26 13.4999ZM16 21.4999C14.4177 21.4999 12.871 21.0307 11.5554 20.1516C10.2398 19.2726 9.21447 18.0232 8.60896 16.5613C8.00346 15.0995 7.84504 13.491 8.15372 11.9392C8.4624 10.3873 9.22433 8.96185 10.3431 7.84303C11.462 6.72421 12.8874 5.96228 14.4393 5.6536C15.9911 5.34492 17.5997 5.50334 19.0615 6.10884C20.5233 6.71434 21.7727 7.73973 22.6518 9.05532C23.5308 10.3709 24 11.9176 24 13.4999C23.9977 15.6209 23.1541 17.6544 21.6543 19.1542C20.1545 20.654 18.121 21.4976 16 21.4999Z" fill="#65A30D"/>
</svg>
